<mxfile host="app.diagrams.net" modified="2024-01-22T17:18:41.980Z" agent="Mozilla/5.0 (Windows NT 10.0; Win64; x64) AppleWebKit/537.36 (KHTML, like Gecko) Chrome/120.0.0.0 Safari/537.36" etag="H5nbwK4HgHSyTT9OktSw" version="22.1.21" type="device">
  <diagram name="Page-1" id="H2nkmMe4zeBrp3ngLw4y">
    <mxGraphModel dx="2257" dy="1947" grid="1" gridSize="10" guides="1" tooltips="1" connect="1" arrows="1" fold="1" page="1" pageScale="1" pageWidth="827" pageHeight="1169" math="0" shadow="0">
      <root>
        <mxCell id="0" />
        <mxCell id="1" parent="0" />
        <mxCell id="Tw-02jlCkX2oVBux-7ap-1" value="Conv&lt;br&gt;7x7x8&lt;br&gt;s = 1&lt;br&gt;p = 0&lt;br&gt;" style="rounded=1;whiteSpace=wrap;html=1;fillColor=#ffe6cc;strokeColor=#d79b00;" vertex="1" parent="1">
          <mxGeometry x="40" y="110" width="50" height="185" as="geometry" />
        </mxCell>
        <mxCell id="Tw-02jlCkX2oVBux-7ap-4" value="Maxpool 2x2" style="rounded=1;whiteSpace=wrap;html=1;fillColor=#dae8fc;strokeColor=#6c8ebf;" vertex="1" parent="1">
          <mxGeometry x="120" y="172.5" width="60" height="60" as="geometry" />
        </mxCell>
        <mxCell id="Tw-02jlCkX2oVBux-7ap-7" value="Conv&lt;br&gt;3x3x32&lt;br&gt;s = 1&lt;br&gt;p = 0" style="rounded=1;whiteSpace=wrap;html=1;fillColor=#ffe6cc;strokeColor=#d79b00;" vertex="1" parent="1">
          <mxGeometry x="380" y="110" width="50" height="185" as="geometry" />
        </mxCell>
        <mxCell id="Tw-02jlCkX2oVBux-7ap-8" value="Maxpool 2x2" style="rounded=1;whiteSpace=wrap;html=1;fillColor=#dae8fc;strokeColor=#6c8ebf;" vertex="1" parent="1">
          <mxGeometry x="560" y="172.5" width="60" height="60" as="geometry" />
        </mxCell>
        <mxCell id="Tw-02jlCkX2oVBux-7ap-9" value="Conv&lt;br&gt;5x5x16&lt;br&gt;s = 1&lt;br&gt;p = 0" style="rounded=1;whiteSpace=wrap;html=1;fillColor=#ffe6cc;strokeColor=#d79b00;" vertex="1" parent="1">
          <mxGeometry x="210" y="110" width="50" height="185" as="geometry" />
        </mxCell>
        <mxCell id="Tw-02jlCkX2oVBux-7ap-10" value="Maxpool 2x2" style="rounded=1;whiteSpace=wrap;html=1;fillColor=#dae8fc;strokeColor=#6c8ebf;" vertex="1" parent="1">
          <mxGeometry x="290" y="172.5" width="60" height="60" as="geometry" />
        </mxCell>
        <mxCell id="Tw-02jlCkX2oVBux-7ap-11" value="Batch norm" style="ellipse;whiteSpace=wrap;html=1;aspect=fixed;fillColor=#f8cecc;strokeColor=#b85450;" vertex="1" parent="1">
          <mxGeometry x="460" y="162.5" width="80" height="80" as="geometry" />
        </mxCell>
        <mxCell id="Tw-02jlCkX2oVBux-7ap-12" value="Linear features" style="rounded=1;whiteSpace=wrap;html=1;fillColor=#d5e8d4;strokeColor=#82b366;" vertex="1" parent="1">
          <mxGeometry x="-150" y="315" width="200" height="30" as="geometry" />
        </mxCell>
        <mxCell id="Tw-02jlCkX2oVBux-7ap-13" value="Flatten" style="rounded=0;whiteSpace=wrap;html=1;" vertex="1" parent="1">
          <mxGeometry x="650" y="192.5" width="120" height="20" as="geometry" />
        </mxCell>
        <mxCell id="Tw-02jlCkX2oVBux-7ap-15" value="" style="rounded=0;whiteSpace=wrap;html=1;" vertex="1" parent="1">
          <mxGeometry x="797" y="-2.5" width="20" height="410" as="geometry" />
        </mxCell>
        <mxCell id="Tw-02jlCkX2oVBux-7ap-17" value="" style="rounded=0;whiteSpace=wrap;html=1;" vertex="1" parent="1">
          <mxGeometry x="860" y="90" width="20" height="225" as="geometry" />
        </mxCell>
        <mxCell id="Tw-02jlCkX2oVBux-7ap-18" value="256 linear" style="text;html=1;strokeColor=none;fillColor=none;align=center;verticalAlign=middle;whiteSpace=wrap;rounded=0;" vertex="1" parent="1">
          <mxGeometry x="840" y="330" width="60" height="30" as="geometry" />
        </mxCell>
        <mxCell id="Tw-02jlCkX2oVBux-7ap-19" value="Linear" style="text;html=1;strokeColor=none;fillColor=none;align=center;verticalAlign=middle;whiteSpace=wrap;rounded=0;" vertex="1" parent="1">
          <mxGeometry x="777" y="420" width="60" height="30" as="geometry" />
        </mxCell>
        <mxCell id="Tw-02jlCkX2oVBux-7ap-21" value="MFFC &amp;amp;&lt;br&gt;delta MFCC&lt;br&gt;(40x40)" style="whiteSpace=wrap;html=1;aspect=fixed;" vertex="1" parent="1">
          <mxGeometry x="-150" y="127.5" width="150" height="150" as="geometry" />
        </mxCell>
        <mxCell id="Tw-02jlCkX2oVBux-7ap-22" value="Batch norm" style="ellipse;whiteSpace=wrap;html=1;aspect=fixed;fillColor=#f8cecc;strokeColor=#b85450;" vertex="1" parent="1">
          <mxGeometry x="910" y="162.5" width="80" height="80" as="geometry" />
        </mxCell>
        <mxCell id="Tw-02jlCkX2oVBux-7ap-38" value="" style="rounded=0;whiteSpace=wrap;html=1;" vertex="1" parent="1">
          <mxGeometry x="1010" y="145" width="20" height="115" as="geometry" />
        </mxCell>
        <mxCell id="Tw-02jlCkX2oVBux-7ap-39" value="14 linear" style="text;html=1;strokeColor=none;fillColor=none;align=center;verticalAlign=middle;whiteSpace=wrap;rounded=0;" vertex="1" parent="1">
          <mxGeometry x="990" y="265" width="60" height="30" as="geometry" />
        </mxCell>
        <mxCell id="Tw-02jlCkX2oVBux-7ap-41" value="" style="rounded=0;whiteSpace=wrap;html=1;" vertex="1" parent="1">
          <mxGeometry x="1110" y="145" width="20" height="115" as="geometry" />
        </mxCell>
        <mxCell id="Tw-02jlCkX2oVBux-7ap-42" value="output" style="text;html=1;strokeColor=none;fillColor=none;align=center;verticalAlign=middle;whiteSpace=wrap;rounded=0;" vertex="1" parent="1">
          <mxGeometry x="1090" y="265" width="60" height="30" as="geometry" />
        </mxCell>
        <mxCell id="Tw-02jlCkX2oVBux-7ap-43" value="" style="endArrow=classic;html=1;rounded=0;exitX=1;exitY=0.5;exitDx=0;exitDy=0;entryX=0;entryY=0.5;entryDx=0;entryDy=0;" edge="1" parent="1" source="Tw-02jlCkX2oVBux-7ap-21" target="Tw-02jlCkX2oVBux-7ap-1">
          <mxGeometry width="50" height="50" relative="1" as="geometry">
            <mxPoint x="50" y="180" as="sourcePoint" />
            <mxPoint x="100" y="130" as="targetPoint" />
          </mxGeometry>
        </mxCell>
        <mxCell id="Tw-02jlCkX2oVBux-7ap-44" value="" style="endArrow=classic;html=1;rounded=0;exitX=1;exitY=0.5;exitDx=0;exitDy=0;entryX=0;entryY=0.5;entryDx=0;entryDy=0;" edge="1" parent="1" source="Tw-02jlCkX2oVBux-7ap-1" target="Tw-02jlCkX2oVBux-7ap-4">
          <mxGeometry width="50" height="50" relative="1" as="geometry">
            <mxPoint x="90" y="410" as="sourcePoint" />
            <mxPoint x="140" y="360" as="targetPoint" />
          </mxGeometry>
        </mxCell>
        <mxCell id="Tw-02jlCkX2oVBux-7ap-45" value="" style="endArrow=classic;html=1;rounded=0;exitX=1;exitY=0.5;exitDx=0;exitDy=0;entryX=0;entryY=0.5;entryDx=0;entryDy=0;" edge="1" parent="1" source="Tw-02jlCkX2oVBux-7ap-4" target="Tw-02jlCkX2oVBux-7ap-9">
          <mxGeometry width="50" height="50" relative="1" as="geometry">
            <mxPoint x="50" y="180" as="sourcePoint" />
            <mxPoint x="100" y="130" as="targetPoint" />
          </mxGeometry>
        </mxCell>
        <mxCell id="Tw-02jlCkX2oVBux-7ap-46" value="" style="endArrow=classic;html=1;rounded=0;exitX=1;exitY=0.5;exitDx=0;exitDy=0;entryX=0;entryY=0.5;entryDx=0;entryDy=0;" edge="1" parent="1" source="Tw-02jlCkX2oVBux-7ap-9" target="Tw-02jlCkX2oVBux-7ap-10">
          <mxGeometry width="50" height="50" relative="1" as="geometry">
            <mxPoint x="230" y="490" as="sourcePoint" />
            <mxPoint x="280" y="440" as="targetPoint" />
          </mxGeometry>
        </mxCell>
        <mxCell id="Tw-02jlCkX2oVBux-7ap-47" value="" style="endArrow=classic;html=1;rounded=0;exitX=1;exitY=0.5;exitDx=0;exitDy=0;entryX=0;entryY=0.5;entryDx=0;entryDy=0;" edge="1" parent="1" source="Tw-02jlCkX2oVBux-7ap-10" target="Tw-02jlCkX2oVBux-7ap-7">
          <mxGeometry width="50" height="50" relative="1" as="geometry">
            <mxPoint x="340" y="470" as="sourcePoint" />
            <mxPoint x="390" y="420" as="targetPoint" />
          </mxGeometry>
        </mxCell>
        <mxCell id="Tw-02jlCkX2oVBux-7ap-48" value="" style="endArrow=classic;html=1;rounded=0;exitX=1;exitY=0.5;exitDx=0;exitDy=0;entryX=0;entryY=0.5;entryDx=0;entryDy=0;" edge="1" parent="1" source="Tw-02jlCkX2oVBux-7ap-7" target="Tw-02jlCkX2oVBux-7ap-11">
          <mxGeometry width="50" height="50" relative="1" as="geometry">
            <mxPoint x="370" y="510" as="sourcePoint" />
            <mxPoint x="420" y="460" as="targetPoint" />
          </mxGeometry>
        </mxCell>
        <mxCell id="Tw-02jlCkX2oVBux-7ap-49" value="" style="endArrow=classic;html=1;rounded=0;exitX=1;exitY=0.5;exitDx=0;exitDy=0;entryX=0;entryY=0.5;entryDx=0;entryDy=0;" edge="1" parent="1" source="Tw-02jlCkX2oVBux-7ap-11" target="Tw-02jlCkX2oVBux-7ap-8">
          <mxGeometry width="50" height="50" relative="1" as="geometry">
            <mxPoint x="290" y="530" as="sourcePoint" />
            <mxPoint x="340" y="480" as="targetPoint" />
          </mxGeometry>
        </mxCell>
        <mxCell id="Tw-02jlCkX2oVBux-7ap-50" value="" style="endArrow=classic;html=1;rounded=0;exitX=1;exitY=0.5;exitDx=0;exitDy=0;entryX=0;entryY=0.5;entryDx=0;entryDy=0;" edge="1" parent="1" source="Tw-02jlCkX2oVBux-7ap-8" target="Tw-02jlCkX2oVBux-7ap-13">
          <mxGeometry width="50" height="50" relative="1" as="geometry">
            <mxPoint x="620" y="580" as="sourcePoint" />
            <mxPoint x="670" y="530" as="targetPoint" />
          </mxGeometry>
        </mxCell>
        <mxCell id="Tw-02jlCkX2oVBux-7ap-52" value="" style="endArrow=classic;html=1;rounded=0;exitX=1;exitY=0.5;exitDx=0;exitDy=0;entryX=0;entryY=0.5;entryDx=0;entryDy=0;" edge="1" parent="1" source="Tw-02jlCkX2oVBux-7ap-13" target="Tw-02jlCkX2oVBux-7ap-15">
          <mxGeometry width="50" height="50" relative="1" as="geometry">
            <mxPoint x="680" y="510" as="sourcePoint" />
            <mxPoint x="730" y="460" as="targetPoint" />
          </mxGeometry>
        </mxCell>
        <mxCell id="Tw-02jlCkX2oVBux-7ap-53" value="" style="endArrow=classic;html=1;rounded=0;exitX=1;exitY=0.5;exitDx=0;exitDy=0;entryX=-0.045;entryY=0.81;entryDx=0;entryDy=0;entryPerimeter=0;" edge="1" parent="1" source="Tw-02jlCkX2oVBux-7ap-12" target="Tw-02jlCkX2oVBux-7ap-15">
          <mxGeometry width="50" height="50" relative="1" as="geometry">
            <mxPoint x="260" y="360" as="sourcePoint" />
            <mxPoint x="310" y="310" as="targetPoint" />
          </mxGeometry>
        </mxCell>
        <mxCell id="Tw-02jlCkX2oVBux-7ap-54" value="" style="endArrow=classic;html=1;rounded=0;exitX=1;exitY=0.5;exitDx=0;exitDy=0;entryX=0;entryY=0.5;entryDx=0;entryDy=0;" edge="1" parent="1" source="Tw-02jlCkX2oVBux-7ap-15" target="Tw-02jlCkX2oVBux-7ap-17">
          <mxGeometry width="50" height="50" relative="1" as="geometry">
            <mxPoint x="1010" y="420" as="sourcePoint" />
            <mxPoint x="1060" y="370" as="targetPoint" />
          </mxGeometry>
        </mxCell>
        <mxCell id="Tw-02jlCkX2oVBux-7ap-55" value="" style="endArrow=classic;html=1;rounded=0;exitX=1;exitY=0.5;exitDx=0;exitDy=0;entryX=0;entryY=0.5;entryDx=0;entryDy=0;" edge="1" parent="1" source="Tw-02jlCkX2oVBux-7ap-17" target="Tw-02jlCkX2oVBux-7ap-22">
          <mxGeometry width="50" height="50" relative="1" as="geometry">
            <mxPoint x="950" y="440" as="sourcePoint" />
            <mxPoint x="1000" y="390" as="targetPoint" />
          </mxGeometry>
        </mxCell>
        <mxCell id="Tw-02jlCkX2oVBux-7ap-56" value="" style="endArrow=classic;html=1;rounded=0;exitX=1;exitY=0.5;exitDx=0;exitDy=0;entryX=0;entryY=0.5;entryDx=0;entryDy=0;" edge="1" parent="1" source="Tw-02jlCkX2oVBux-7ap-22" target="Tw-02jlCkX2oVBux-7ap-38">
          <mxGeometry width="50" height="50" relative="1" as="geometry">
            <mxPoint x="1000" y="450" as="sourcePoint" />
            <mxPoint x="1050" y="400" as="targetPoint" />
          </mxGeometry>
        </mxCell>
        <mxCell id="Tw-02jlCkX2oVBux-7ap-57" value="" style="endArrow=classic;html=1;rounded=0;exitX=1;exitY=0.5;exitDx=0;exitDy=0;entryX=0;entryY=0.5;entryDx=0;entryDy=0;" edge="1" parent="1" source="Tw-02jlCkX2oVBux-7ap-38" target="Tw-02jlCkX2oVBux-7ap-41">
          <mxGeometry width="50" height="50" relative="1" as="geometry">
            <mxPoint x="1110" y="420" as="sourcePoint" />
            <mxPoint x="1160" y="370" as="targetPoint" />
          </mxGeometry>
        </mxCell>
        <mxCell id="Tw-02jlCkX2oVBux-7ap-58" value="Softmax" style="text;html=1;strokeColor=none;fillColor=none;align=center;verticalAlign=middle;whiteSpace=wrap;rounded=0;" vertex="1" parent="1">
          <mxGeometry x="1040" y="172.5" width="60" height="30" as="geometry" />
        </mxCell>
      </root>
    </mxGraphModel>
  </diagram>
</mxfile>
